<?xml version="1.0" encoding="utf-8"?>
<svg width="50" height="10" viewBox="122 0 4050 1100" fill="none" xmlns="http://www.w3.org/2000/svg">
    <path d="M42.7559 227.908L42.7559 1.00052" stroke="#D8D8D8" stroke-width="30"/>
    <path d="M42.7559 227.908L42.7559 1.00052" stroke="#D8D8D8" stroke-width="30"/>
    <path d="M42.7559 559L42.7559 332.092" stroke="#D8D8D8" stroke-width="30"/>
    <path d="M42.7559 559L42.7559 332.092" stroke="#D8D8D8" stroke-width="30"/>
    <line y1="-15" x2="289.101" y2="-15" transform="matrix(0.819783 0.572674 -0.574479 0.818519 0 45.687)" stroke="#D8D8D8" stroke-width="30"/>
    <line y1="-15" x2="289.101" y2="-15" transform="matrix(-0.819783 0.572674 -0.574479 -0.818519 237 18.2659)" stroke="#D8D8D8" stroke-width="30"/>
    <path d="M211.742 227.908L211.742 1.00051" stroke="#D8D8D8" stroke-width="30"/>
    <path d="M277.911 344.714V212.685" stroke="#D8D8D8" stroke-width="30"/>
    <line y1="-15" x2="289.101" y2="-15" transform="matrix(0.819783 0.572674 -0.574479 0.818519 237.191 211.242)" stroke="#D8D8D8" stroke-width="30"/>
    <line y1="-15" x2="289.101" y2="-15" transform="matrix(-0.819783 0.572674 -0.574479 -0.818519 474.191 183.82)" stroke="#D8D8D8" stroke-width="30"/>
    <path d="M448.934 347.76V215.732" stroke="#D8D8D8" stroke-width="30"/>
    <path d="M277.911 344.714V212.685" stroke="#D8D8D8" stroke-width="30"/>
    <line y1="-15" x2="289.101" y2="-15" transform="matrix(0.819783 0.572674 -0.574479 0.818519 0 45.687)" stroke="#D8D8D8" stroke-width="30"/>
    <line y1="-15" x2="289.101" y2="-15" transform="matrix(-0.819783 0.572674 -0.574479 -0.818519 237 18.2659)" stroke="#D8D8D8" stroke-width="30"/>
    <path d="M211.742 227.908L211.742 1.00051" stroke="#D8D8D8" stroke-width="30"/>
    <line y1="-15" x2="289.101" y2="-15" transform="matrix(0.819783 0.572674 -0.574479 0.818519 0 376.778)" stroke="#D8D8D8" stroke-width="30"/>
    <line y1="-15" x2="289.101" y2="-15" transform="matrix(-0.819783 0.572674 -0.574479 -0.818519 237 349.357)" stroke="#D8D8D8" stroke-width="30"/>
    <path d="M211.742 559L211.742 332.092" stroke="#D8D8D8" stroke-width="30"/>
    <line y1="-15" x2="289.101" y2="-15" transform="matrix(0.819783 0.572674 -0.574479 0.818519 0 376.778)" stroke="#D8D8D8" stroke-width="30"/>
    <line y1="-15" x2="289.101" y2="-15" transform="matrix(-0.819783 0.572674 -0.574479 -0.818519 237 349.357)" stroke="#D8D8D8" stroke-width="30"/>
    <path d="M211.742 559L211.742 332.092" stroke="#D8D8D8" stroke-width="30"/>
    <path d="M517.139 227.908V1.00052" stroke="#D8D8D8" stroke-width="30"/>
    <path d="M517.139 227.908V1.00052" stroke="#D8D8D8" stroke-width="30"/>
    <path d="M517.139 559V332.092" stroke="#D8D8D8" stroke-width="30"/>
    <path d="M517.139 559V332.092" stroke="#D8D8D8" stroke-width="30"/>
    <line y1="-15" x2="289.101" y2="-15" transform="matrix(0.819783 0.572674 -0.574479 0.818519 474.383 45.687)" stroke="#D8D8D8" stroke-width="30"/>
    <line y1="-15" x2="289.101" y2="-15" transform="matrix(-0.819783 0.572674 -0.574479 -0.818519 711.383 18.2659)" stroke="#D8D8D8" stroke-width="30"/>
    <path d="M686.125 227.908V1.00051" stroke="#D8D8D8" stroke-width="30"/>
    <path d="M752.295 344.714V212.685" stroke="#D8D8D8" stroke-width="30"/>
    <line y1="-15" x2="289.101" y2="-15" transform="matrix(0.819783 0.572674 -0.574479 0.818519 711.575 211.242)" stroke="#D8D8D8" stroke-width="30"/>
    <line y1="-15" x2="289.101" y2="-15" transform="matrix(-0.819783 0.572674 -0.574479 -0.818519 948.575 183.82)" stroke="#D8D8D8" stroke-width="30"/>
    <path d="M923.317 347.76V215.732" stroke="#D8D8D8" stroke-width="30"/>
    <path d="M752.295 344.714V212.685" stroke="#D8D8D8" stroke-width="30"/>
    <line y1="-15" x2="289.101" y2="-15" transform="matrix(0.819783 0.572674 -0.574479 0.818519 474.383 45.687)" stroke="#D8D8D8" stroke-width="30"/>
    <line y1="-15" x2="289.101" y2="-15" transform="matrix(-0.819783 0.572674 -0.574479 -0.818519 711.383 18.2659)" stroke="#D8D8D8" stroke-width="30"/>
    <path d="M686.125 227.908V1.00051" stroke="#D8D8D8" stroke-width="30"/>
    <line y1="-15" x2="289.101" y2="-15" transform="matrix(0.819783 0.572674 -0.574479 0.818519 474.383 376.778)" stroke="#D8D8D8" stroke-width="30"/>
    <line y1="-15" x2="289.101" y2="-15" transform="matrix(-0.819783 0.572674 -0.574479 -0.818519 711.383 349.357)" stroke="#D8D8D8" stroke-width="30"/>
    <path d="M686.125 559V332.092" stroke="#D8D8D8" stroke-width="30"/>
    <line y1="-15" x2="289.101" y2="-15" transform="matrix(0.819783 0.572674 -0.574479 0.818519 474.383 376.778)" stroke="#D8D8D8" stroke-width="30"/>
    <line y1="-15" x2="289.101" y2="-15" transform="matrix(-0.819783 0.572674 -0.574479 -0.818519 711.383 349.357)" stroke="#D8D8D8" stroke-width="30"/>
    <path d="M686.125 559V332.092" stroke="#D8D8D8" stroke-width="30"/>
    <path d="M991.522 227.908V1.00052" stroke="#D8D8D8" stroke-width="30"/>
    <path d="M991.522 227.908V1.00052" stroke="#D8D8D8" stroke-width="30"/>
    <path d="M991.522 559V332.092" stroke="#D8D8D8" stroke-width="30"/>
    <path d="M991.522 559V332.092" stroke="#D8D8D8" stroke-width="30"/>
    <line y1="-15" x2="289.101" y2="-15" transform="matrix(0.819783 0.572674 -0.574479 0.818519 948.767 45.687)" stroke="#D8D8D8" stroke-width="30"/>
    <line y1="-15" x2="289.101" y2="-15" transform="matrix(-0.819783 0.572674 -0.574479 -0.818519 1185.77 18.2659)" stroke="#D8D8D8" stroke-width="30"/>
    <path d="M1160.51 227.908V1.00051" stroke="#D8D8D8" stroke-width="30"/>
    <path d="M1226.68 344.714V212.685" stroke="#D8D8D8" stroke-width="30"/>
    <line y1="-15" x2="289.101" y2="-15" transform="matrix(0.819783 0.572674 -0.574479 0.818519 1185.96 211.242)" stroke="#D8D8D8" stroke-width="30"/>
    <line y1="-15" x2="289.101" y2="-15" transform="matrix(-0.819783 0.572674 -0.574479 -0.818519 1422.96 183.82)" stroke="#D8D8D8" stroke-width="30"/>
    <path d="M1397.7 347.76V215.732" stroke="#D8D8D8" stroke-width="30"/>
    <path d="M1226.68 344.714V212.685" stroke="#D8D8D8" stroke-width="30"/>
    <line y1="-15" x2="289.101" y2="-15" transform="matrix(0.819783 0.572674 -0.574479 0.818519 948.767 45.687)" stroke="#D8D8D8" stroke-width="30"/>
    <line y1="-15" x2="289.101" y2="-15" transform="matrix(-0.819783 0.572674 -0.574479 -0.818519 1185.77 18.2659)" stroke="#D8D8D8" stroke-width="30"/>
    <path d="M1160.51 227.908V1.00051" stroke="#D8D8D8" stroke-width="30"/>
    <line y1="-15" x2="289.101" y2="-15" transform="matrix(0.819783 0.572674 -0.574479 0.818519 948.767 376.778)" stroke="#D8D8D8" stroke-width="30"/>
    <line y1="-15" x2="289.101" y2="-15" transform="matrix(-0.819783 0.572674 -0.574479 -0.818519 1185.77 349.357)" stroke="#D8D8D8" stroke-width="30"/>
    <path d="M1160.51 559V332.092" stroke="#D8D8D8" stroke-width="30"/>
    <line y1="-15" x2="289.101" y2="-15" transform="matrix(0.819783 0.572674 -0.574479 0.818519 948.767 376.778)" stroke="#D8D8D8" stroke-width="30"/>
    <line y1="-15" x2="289.101" y2="-15" transform="matrix(-0.819783 0.572674 -0.574479 -0.818519 1185.77 349.357)" stroke="#D8D8D8" stroke-width="30"/>
    <path d="M1160.51 559V332.092" stroke="#D8D8D8" stroke-width="30"/>
    <path d="M1465.9 227.909V1.00101" stroke="#D8D8D8" stroke-width="30"/>
    <path d="M1465.9 227.909V1.00101" stroke="#D8D8D8" stroke-width="30"/>
    <path d="M1465.9 559V332.092" stroke="#D8D8D8" stroke-width="30"/>
    <path d="M1465.9 559V332.092" stroke="#D8D8D8" stroke-width="30"/>
    <line y1="-15" x2="289.101" y2="-15" transform="matrix(0.819783 0.572674 -0.574479 0.818519 1423.15 45.6873)" stroke="#D8D8D8" stroke-width="30"/>
    <line y1="-15" x2="289.101" y2="-15" transform="matrix(-0.819783 0.572674 -0.574479 -0.818519 1660.15 18.2661)" stroke="#D8D8D8" stroke-width="30"/>
    <path d="M1634.89 227.908V1.00076" stroke="#D8D8D8" stroke-width="30"/>
    <path d="M1701.06 344.714V212.685" stroke="#D8D8D8" stroke-width="30"/>
    <line y1="-15" x2="289.101" y2="-15" transform="matrix(0.819783 0.572674 -0.574479 0.818519 1660.34 211.242)" stroke="#D8D8D8" stroke-width="30"/>
    <line y1="-15" x2="289.101" y2="-15" transform="matrix(-0.819783 0.572674 -0.574479 -0.818519 1897.34 183.821)" stroke="#D8D8D8" stroke-width="30"/>
    <path d="M1872.08 347.76V215.732" stroke="#D8D8D8" stroke-width="30"/>
    <path d="M1701.06 344.714V212.685" stroke="#D8D8D8" stroke-width="30"/>
    <line y1="-15" x2="289.101" y2="-15" transform="matrix(0.819783 0.572674 -0.574479 0.818519 1423.15 45.6873)" stroke="#D8D8D8" stroke-width="30"/>
    <line y1="-15" x2="289.101" y2="-15" transform="matrix(-0.819783 0.572674 -0.574479 -0.818519 1660.15 18.2661)" stroke="#D8D8D8" stroke-width="30"/>
    <path d="M1634.89 227.908V1.00076" stroke="#D8D8D8" stroke-width="30"/>
    <line y1="-15" x2="289.101" y2="-15" transform="matrix(0.819783 0.572674 -0.574479 0.818519 1423.15 376.779)" stroke="#D8D8D8" stroke-width="30"/>
    <line y1="-15" x2="289.101" y2="-15" transform="matrix(-0.819783 0.572674 -0.574479 -0.818519 1660.15 349.358)" stroke="#D8D8D8" stroke-width="30"/>
    <path d="M1634.89 559V332.092" stroke="#D8D8D8" stroke-width="30"/>
    <line y1="-15" x2="289.101" y2="-15" transform="matrix(0.819783 0.572674 -0.574479 0.818519 1423.15 376.779)" stroke="#D8D8D8" stroke-width="30"/>
    <line y1="-15" x2="289.101" y2="-15" transform="matrix(-0.819783 0.572674 -0.574479 -0.818519 1660.15 349.358)" stroke="#D8D8D8" stroke-width="30"/>
    <path d="M1634.89 559V332.092" stroke="#D8D8D8" stroke-width="30"/>
    <path d="M1940.29 227.909V1.00101" stroke="#D8D8D8" stroke-width="30"/>
    <path d="M1940.29 227.909V1.00101" stroke="#D8D8D8" stroke-width="30"/>
    <path d="M1940.29 559V332.092" stroke="#D8D8D8" stroke-width="30"/>
    <path d="M1940.29 559V332.092" stroke="#D8D8D8" stroke-width="30"/>
    <line y1="-15" x2="289.101" y2="-15" transform="matrix(0.819783 0.572674 -0.574479 0.818519 1897.53 45.6873)" stroke="#D8D8D8" stroke-width="30"/>
    <line y1="-15" x2="289.101" y2="-15" transform="matrix(-0.819783 0.572674 -0.574479 -0.818519 2134.53 18.2661)" stroke="#D8D8D8" stroke-width="30"/>
    <path d="M2109.28 227.908V1.00076" stroke="#D8D8D8" stroke-width="30"/>
    <path d="M2175.44 344.714V212.685" stroke="#D8D8D8" stroke-width="30"/>
    <line y1="-15" x2="289.101" y2="-15" transform="matrix(0.819783 0.572674 -0.574479 0.818519 2134.72 211.242)" stroke="#D8D8D8" stroke-width="30"/>
    <line y1="-15" x2="289.101" y2="-15" transform="matrix(-0.819783 0.572674 -0.574479 -0.818519 2371.72 183.821)" stroke="#D8D8D8" stroke-width="30"/>
    <path d="M2346.47 347.76V215.732" stroke="#D8D8D8" stroke-width="30"/>
    <path d="M2175.44 344.714V212.685" stroke="#D8D8D8" stroke-width="30"/>
    <line y1="-15" x2="289.101" y2="-15" transform="matrix(0.819783 0.572674 -0.574479 0.818519 1897.53 45.6873)" stroke="#D8D8D8" stroke-width="30"/>
    <line y1="-15" x2="289.101" y2="-15" transform="matrix(-0.819783 0.572674 -0.574479 -0.818519 2134.53 18.2661)" stroke="#D8D8D8" stroke-width="30"/>
    <path d="M2109.28 227.908V1.00076" stroke="#D8D8D8" stroke-width="30"/>
    <line y1="-15" x2="289.101" y2="-15" transform="matrix(0.819783 0.572674 -0.574479 0.818519 1897.53 376.779)" stroke="#D8D8D8" stroke-width="30"/>
    <line y1="-15" x2="289.101" y2="-15" transform="matrix(-0.819783 0.572674 -0.574479 -0.818519 2134.53 349.358)" stroke="#D8D8D8" stroke-width="30"/>
    <path d="M2109.28 559V332.092" stroke="#D8D8D8" stroke-width="30"/>
    <line y1="-15" x2="289.101" y2="-15" transform="matrix(0.819783 0.572674 -0.574479 0.818519 1897.53 376.779)" stroke="#D8D8D8" stroke-width="30"/>
    <line y1="-15" x2="289.101" y2="-15" transform="matrix(-0.819783 0.572674 -0.574479 -0.818519 2134.53 349.358)" stroke="#D8D8D8" stroke-width="30"/>
    <path d="M2109.28 559V332.092" stroke="#D8D8D8" stroke-width="30"/>
    <path d="M2414.67 227.909V1.00101" stroke="#D8D8D8" stroke-width="30"/>
    <path d="M2414.67 227.909V1.00101" stroke="#D8D8D8" stroke-width="30"/>
    <path d="M2414.67 559V332.092" stroke="#D8D8D8" stroke-width="30"/>
    <path d="M2414.67 559V332.092" stroke="#D8D8D8" stroke-width="30"/>
    <line y1="-15" x2="289.101" y2="-15" transform="matrix(0.819783 0.572674 -0.574479 0.818519 2371.92 45.6873)" stroke="#D8D8D8" stroke-width="30"/>
    <line y1="-15" x2="289.101" y2="-15" transform="matrix(-0.819783 0.572674 -0.574479 -0.818519 2608.92 18.2661)" stroke="#D8D8D8" stroke-width="30"/>
    <path d="M2583.66 227.908V1.00076" stroke="#D8D8D8" stroke-width="30"/>
    <path d="M2649.83 344.714V212.685" stroke="#D8D8D8" stroke-width="30"/>
    <line y1="-15" x2="289.101" y2="-15" transform="matrix(0.819783 0.572674 -0.574479 0.818519 2609.11 211.242)" stroke="#D8D8D8" stroke-width="30"/>
    <line y1="-15" x2="289.101" y2="-15" transform="matrix(-0.819783 0.572674 -0.574479 -0.818519 2846.11 183.821)" stroke="#D8D8D8" stroke-width="30"/>
    <path d="M2820.85 347.76V215.732" stroke="#D8D8D8" stroke-width="30"/>
    <path d="M2649.83 344.714V212.685" stroke="#D8D8D8" stroke-width="30"/>
    <line y1="-15" x2="289.101" y2="-15" transform="matrix(0.819783 0.572674 -0.574479 0.818519 2371.92 45.6873)" stroke="#D8D8D8" stroke-width="30"/>
    <line y1="-15" x2="289.101" y2="-15" transform="matrix(-0.819783 0.572674 -0.574479 -0.818519 2608.92 18.2661)" stroke="#D8D8D8" stroke-width="30"/>
    <path d="M2583.66 227.908V1.00076" stroke="#D8D8D8" stroke-width="30"/>
    <line y1="-15" x2="289.101" y2="-15" transform="matrix(0.819783 0.572674 -0.574479 0.818519 2371.92 376.779)" stroke="#D8D8D8" stroke-width="30"/>
    <line y1="-15" x2="289.101" y2="-15" transform="matrix(-0.819783 0.572674 -0.574479 -0.818519 2608.92 349.358)" stroke="#D8D8D8" stroke-width="30"/>
    <path d="M2583.66 559V332.092" stroke="#D8D8D8" stroke-width="30"/>
    <line y1="-15" x2="289.101" y2="-15" transform="matrix(0.819783 0.572674 -0.574479 0.818519 2371.92 376.779)" stroke="#D8D8D8" stroke-width="30"/>
    <line y1="-15" x2="289.101" y2="-15" transform="matrix(-0.819783 0.572674 -0.574479 -0.818519 2608.92 349.358)" stroke="#D8D8D8" stroke-width="30"/>
    <path d="M2583.66 559V332.092" stroke="#D8D8D8" stroke-width="30"/>
    <path d="M2889.05 227.908V1.00052" stroke="#D8D8D8" stroke-width="30"/>
    <path d="M2889.05 227.908V1.00052" stroke="#D8D8D8" stroke-width="30"/>
    <path d="M2889.05 559V332.092" stroke="#D8D8D8" stroke-width="30"/>
    <path d="M2889.05 559V332.092" stroke="#D8D8D8" stroke-width="30"/>
    <line y1="-15" x2="289.101" y2="-15" transform="matrix(0.819783 0.572674 -0.574479 0.818519 2846.3 45.687)" stroke="#D8D8D8" stroke-width="30"/>
    <line y1="-15" x2="289.101" y2="-15" transform="matrix(-0.819783 0.572674 -0.574479 -0.818519 3083.3 18.2659)" stroke="#D8D8D8" stroke-width="30"/>
    <path d="M3058.04 227.908V1.00051" stroke="#D8D8D8" stroke-width="30"/>
    <path d="M3124.21 344.714V212.685" stroke="#D8D8D8" stroke-width="30"/>
    <line y1="-15" x2="289.101" y2="-15" transform="matrix(0.819783 0.572674 -0.574479 0.818519 3083.49 211.242)" stroke="#D8D8D8" stroke-width="30"/>
    <line y1="-15" x2="289.101" y2="-15" transform="matrix(-0.819783 0.572674 -0.574479 -0.818519 3320.49 183.82)" stroke="#D8D8D8" stroke-width="30"/>
    <path d="M3295.23 347.76V215.732" stroke="#D8D8D8" stroke-width="30"/>
    <path d="M3124.21 344.714V212.685" stroke="#D8D8D8" stroke-width="30"/>
    <line y1="-15" x2="289.101" y2="-15" transform="matrix(0.819783 0.572674 -0.574479 0.818519 2846.3 45.687)" stroke="#D8D8D8" stroke-width="30"/>
    <line y1="-15" x2="289.101" y2="-15" transform="matrix(-0.819783 0.572674 -0.574479 -0.818519 3083.3 18.2659)" stroke="#D8D8D8" stroke-width="30"/>
    <path d="M3058.04 227.908V1.00051" stroke="#D8D8D8" stroke-width="30"/>
    <line y1="-15" x2="289.101" y2="-15" transform="matrix(0.819783 0.572674 -0.574479 0.818519 2846.3 376.778)" stroke="#D8D8D8" stroke-width="30"/>
    <line y1="-15" x2="289.101" y2="-15" transform="matrix(-0.819783 0.572674 -0.574479 -0.818519 3083.3 349.357)" stroke="#D8D8D8" stroke-width="30"/>
    <path d="M3058.04 559V332.092" stroke="#D8D8D8" stroke-width="30"/>
    <line y1="-15" x2="289.101" y2="-15" transform="matrix(0.819783 0.572674 -0.574479 0.818519 2846.3 376.778)" stroke="#D8D8D8" stroke-width="30"/>
    <line y1="-15" x2="289.101" y2="-15" transform="matrix(-0.819783 0.572674 -0.574479 -0.818519 3083.3 349.357)" stroke="#D8D8D8" stroke-width="30"/>
    <path d="M3058.04 559V332.092" stroke="#D8D8D8" stroke-width="30"/>
    <path d="M3363.44 227.908V1.00052" stroke="#D8D8D8" stroke-width="30"/>
    <path d="M3363.44 227.908V1.00052" stroke="#D8D8D8" stroke-width="30"/>
    <path d="M3363.44 559V332.092" stroke="#D8D8D8" stroke-width="30"/>
    <path d="M3363.44 559V332.092" stroke="#D8D8D8" stroke-width="30"/>
    <line y1="-15" x2="289.101" y2="-15" transform="matrix(0.819783 0.572674 -0.574479 0.818519 3320.68 45.6868)" stroke="#D8D8D8" stroke-width="30"/>
    <line y1="-15" x2="289.101" y2="-15" transform="matrix(-0.819783 0.572674 -0.574479 -0.818519 3557.68 18.2656)" stroke="#D8D8D8" stroke-width="30"/>
    <path d="M3532.43 227.908V1.00027" stroke="#D8D8D8" stroke-width="30"/>
    <path d="M3598.59 344.714V212.685" stroke="#D8D8D8" stroke-width="30"/>
    <line y1="-15" x2="289.101" y2="-15" transform="matrix(0.819783 0.572674 -0.574479 0.818519 3557.88 211.241)" stroke="#D8D8D8" stroke-width="30"/>
    <line y1="-15" x2="289.101" y2="-15" transform="matrix(-0.819783 0.572674 -0.574479 -0.818519 3794.88 183.82)" stroke="#D8D8D8" stroke-width="30"/>
    <path d="M3769.62 347.76V215.731" stroke="#D8D8D8" stroke-width="30"/>
    <path d="M3598.59 344.714V212.685" stroke="#D8D8D8" stroke-width="30"/>
    <line y1="-15" x2="289.101" y2="-15" transform="matrix(0.819783 0.572674 -0.574479 0.818519 3320.68 45.6868)" stroke="#D8D8D8" stroke-width="30"/>
    <line y1="-15" x2="289.101" y2="-15" transform="matrix(-0.819783 0.572674 -0.574479 -0.818519 3557.68 18.2656)" stroke="#D8D8D8" stroke-width="30"/>
    <path d="M3532.43 227.908V1.00027" stroke="#D8D8D8" stroke-width="30"/>
    <line y1="-15" x2="289.101" y2="-15" transform="matrix(0.819783 0.572674 -0.574479 0.818519 3320.68 376.778)" stroke="#D8D8D8" stroke-width="30"/>
    <line y1="-15" x2="289.101" y2="-15" transform="matrix(-0.819783 0.572674 -0.574479 -0.818519 3557.68 349.357)" stroke="#D8D8D8" stroke-width="30"/>
    <path d="M3532.43 559V332.092" stroke="#D8D8D8" stroke-width="30"/>
    <line y1="-15" x2="289.101" y2="-15" transform="matrix(0.819783 0.572674 -0.574479 0.818519 3320.68 376.778)" stroke="#D8D8D8" stroke-width="30"/>
    <line y1="-15" x2="289.101" y2="-15" transform="matrix(-0.819783 0.572674 -0.574479 -0.818519 3557.68 349.357)" stroke="#D8D8D8" stroke-width="30"/>
    <path d="M3532.43 559V332.092" stroke="#D8D8D8" stroke-width="30"/>
    <path d="M3837.82 227.908V1.00052" stroke="#D8D8D8" stroke-width="30"/>
    <path d="M3837.82 227.908V1.00052" stroke="#D8D8D8" stroke-width="30"/>
    <path d="M3837.82 559V332.092" stroke="#D8D8D8" stroke-width="30"/>
    <path d="M3837.82 559V332.092" stroke="#D8D8D8" stroke-width="30"/>
    <line y1="-15" x2="289.101" y2="-15" transform="matrix(0.819783 0.572674 -0.574479 0.818519 3795.07 45.6865)" stroke="#D8D8D8" stroke-width="30"/>
    <line y1="-15" x2="289.101" y2="-15" transform="matrix(-0.819783 0.572674 -0.574479 -0.818519 4032.07 18.2654)" stroke="#D8D8D8" stroke-width="30"/>
    <path d="M4006.81 227.908V1.00002" stroke="#D8D8D8" stroke-width="30"/>
    <line y1="-15" x2="289.101" y2="-15" transform="matrix(0.819783 0.572674 -0.574479 0.818519 3795.07 45.6865)" stroke="#D8D8D8" stroke-width="30"/>
    <line y1="-15" x2="289.101" y2="-15" transform="matrix(-0.819783 0.572674 -0.574479 -0.818519 4032.07 18.2654)" stroke="#D8D8D8" stroke-width="30"/>
    <path d="M4006.81 227.908V1.00002" stroke="#D8D8D8" stroke-width="30"/>
    <line y1="-15" x2="289.101" y2="-15" transform="matrix(0.819783 0.572674 -0.574479 0.818519 3795.07 376.778)" stroke="#D8D8D8" stroke-width="30"/>
    <line y1="-15" x2="289.101" y2="-15" transform="matrix(-0.819783 0.572674 -0.574479 -0.818519 4032.07 349.357)" stroke="#D8D8D8" stroke-width="30"/>
    <path d="M4006.81 559V332.092" stroke="#D8D8D8" stroke-width="30"/>
    <line y1="-15" x2="289.101" y2="-15" transform="matrix(0.819783 0.572674 -0.574479 0.818519 3795.07 376.778)" stroke="#D8D8D8" stroke-width="30"/>
    <line y1="-15" x2="289.101" y2="-15" transform="matrix(-0.819783 0.572674 -0.574479 -0.818519 4032.07 349.357)" stroke="#D8D8D8" stroke-width="30"/>
    <path d="M 42.782 779.297 L 42.782 552.387" stroke="#D8D8D8" stroke-width="30" style="stroke-width: 30;"/>
    <path d="M 42.782 779.297 L 42.782 552.387" stroke="#D8D8D8" stroke-width="30" style="stroke-width: 30;"/>
    <path d="M 42.782 1110.38 L 42.782 883.477" stroke="#D8D8D8" stroke-width="30" style="stroke-width: 30;"/>
    <path d="M 42.782 1110.38 L 42.782 883.477" stroke="#D8D8D8" stroke-width="30" style="stroke-width: 30;"/>
    <line y1="584.797" x2="245.643" y2="750.357" stroke="#D8D8D8" stroke-width="30" x1="8.643" style="stroke-width: 30;"/>
    <line y1="581.927" x2="8.643" y2="747.487" stroke="#D8D8D8" stroke-width="30" x1="245.643" style="stroke-width: 30;"/>
    <path d="M 211.768 779.297 L 211.768 552.387" stroke="#D8D8D8" stroke-width="30" style="stroke-width: 30;"/>
    <path d="M 277.937 896.097 L 277.937 764.067" stroke="#D8D8D8" stroke-width="30" style="stroke-width: 30;"/>
    <line y1="750.347" x2="482.834" y2="915.907" stroke="#D8D8D8" stroke-width="30" x1="245.834" style="stroke-width: 30;"/>
    <line y1="747.487" x2="245.834" y2="913.047" stroke="#D8D8D8" stroke-width="30" x1="482.834" style="stroke-width: 30;"/>
    <path d="M 448.961 899.146 L 448.961 767.116" stroke="#D8D8D8" stroke-width="30" style="stroke-width: 30; transform-box: fill-box; transform-origin: 50% 50%;" transform="matrix(1, 0.000001, -0.000001, 1, 0, 0)"/>
    <path d="M 277.937 896.097 L 277.937 764.067" stroke="#D8D8D8" stroke-width="30" style="stroke-width: 30;"/>
    <line y1="584.797" x2="245.643" y2="750.357" stroke="#D8D8D8" stroke-width="30" x1="8.643" style="stroke-width: 30;"/>
    <line y1="581.927" x2="8.643" y2="747.487" stroke="#D8D8D8" stroke-width="30" x1="245.643" style="stroke-width: 30;"/>
    <path d="M 211.768 779.297 L 211.768 552.387" stroke="#D8D8D8" stroke-width="30" style="stroke-width: 30;"/>
    <line y1="915.887" x2="245.643" y2="1081.44" stroke="#D8D8D8" stroke-width="30" x1="8.643" style="stroke-width: 30;"/>
    <line y1="913.017" x2="8.643" y2="1078.59" stroke="#D8D8D8" stroke-width="30" x1="245.643" style="stroke-width: 30;"/>
    <path d="M 211.768 1110.38 L 211.768 883.477" stroke="#D8D8D8" stroke-width="30" style="stroke-width: 30;"/>
    <line y1="915.887" x2="245.643" y2="1081.44" stroke="#D8D8D8" stroke-width="30" x1="8.643" style="stroke-width: 30;"/>
    <line y1="913.017" x2="8.643" y2="1078.59" stroke="#D8D8D8" stroke-width="30" x1="245.643" style="stroke-width: 30;"/>
    <path d="M 211.768 1110.38 L 211.768 883.477" stroke="#D8D8D8" stroke-width="30" style="stroke-width: 30;"/>
    <path d="M 517.165 779.297 L 517.165 552.387" stroke="#D8D8D8" stroke-width="30" style="stroke-width: 30;"/>
    <path d="M 517.165 779.297 L 517.165 552.387" stroke="#D8D8D8" stroke-width="30" style="stroke-width: 30;"/>
    <path d="M 517.165 1110.38 L 517.165 883.477" stroke="#D8D8D8" stroke-width="30" style="stroke-width: 30;"/>
    <path d="M 517.165 1110.38 L 517.165 883.477" stroke="#D8D8D8" stroke-width="30" style="stroke-width: 30;"/>
    <line y1="584.797" x2="720.026" y2="750.357" stroke="#D8D8D8" stroke-width="30" x1="483.026" style="stroke-width: 30;"/>
    <line y1="581.927" x2="483.026" y2="747.487" stroke="#D8D8D8" stroke-width="30" x1="720.026" style="stroke-width: 30;"/>
    <path d="M 686.151 779.297 L 686.151 552.387" stroke="#D8D8D8" stroke-width="30" style="stroke-width: 30;"/>
    <path d="M 752.321 896.097 L 752.321 764.067" stroke="#D8D8D8" stroke-width="30" style="stroke-width: 30;"/>
    <line y1="750.347" x2="957.214" y2="915.907" stroke="#D8D8D8" stroke-width="30" x1="720.218" style="stroke-width: 30;"/>
    <line y1="747.487" x2="720.218" y2="913.047" stroke="#D8D8D8" stroke-width="30" x1="957.214" style="stroke-width: 30;"/>
    <path d="M 923.343 899.15 L 923.343 767.117" stroke="#D8D8D8" stroke-width="30" style="stroke-width: 30; transform-box: fill-box; transform-origin: 50% 50%;"/>
    <path d="M 752.321 896.097 L 752.321 764.067" stroke="#D8D8D8" stroke-width="30" style="stroke-width: 30;"/>
    <line y1="584.797" x2="720.026" y2="750.357" stroke="#D8D8D8" stroke-width="30" x1="483.026" style="stroke-width: 30;"/>
    <line y1="581.927" x2="483.026" y2="747.487" stroke="#D8D8D8" stroke-width="30" x1="720.026" style="stroke-width: 30;"/>
    <path d="M 686.151 779.297 L 686.151 552.387" stroke="#D8D8D8" stroke-width="30" style="stroke-width: 30;"/>
    <line y1="915.887" x2="720.026" y2="1081.44" stroke="#D8D8D8" stroke-width="30" x1="483.026" style="stroke-width: 30;"/>
    <line y1="913.017" x2="483.026" y2="1078.59" stroke="#D8D8D8" stroke-width="30" x1="720.026" style="stroke-width: 30;"/>
    <path d="M 686.151 1110.38 L 686.151 883.477" stroke="#D8D8D8" stroke-width="30" style="stroke-width: 30;"/>
    <line y1="915.887" x2="720.026" y2="1081.44" stroke="#D8D8D8" stroke-width="30" x1="483.026" style="stroke-width: 30;"/>
    <line y1="913.017" x2="483.026" y2="1078.59" stroke="#D8D8D8" stroke-width="30" x1="720.026" style="stroke-width: 30;"/>
    <path d="M 686.151 1110.38 L 686.151 883.477" stroke="#D8D8D8" stroke-width="30" style="stroke-width: 30;"/>
    <path d="M 991.544 779.297 L 991.544 552.387" stroke="#D8D8D8" stroke-width="30" style="stroke-width: 30;"/>
    <path d="M 991.544 779.297 L 991.544 552.387" stroke="#D8D8D8" stroke-width="30" style="stroke-width: 30;"/>
    <path d="M 991.544 1110.38 L 991.544 883.477" stroke="#D8D8D8" stroke-width="30" style="stroke-width: 30;"/>
    <path d="M 991.544 1110.38 L 991.544 883.477" stroke="#D8D8D8" stroke-width="30" style="stroke-width: 30;"/>
    <line y1="584.797" x2="1194.41" y2="750.357" stroke="#D8D8D8" stroke-width="30" x1="957.414" style="stroke-width: 30;"/>
    <line y1="581.927" x2="957.414" y2="747.487" stroke="#D8D8D8" stroke-width="30" x1="1194.41" style="stroke-width: 30;"/>
    <path d="M 1160.53 779.297 L 1160.53 552.387" stroke="#D8D8D8" stroke-width="30" style="stroke-width: 30;"/>
    <path d="M 1226.7 896.097 L 1226.7 764.067" stroke="#D8D8D8" stroke-width="30" style="stroke-width: 30;"/>
    <line y1="750.347" x2="1431.6" y2="915.907" stroke="#D8D8D8" stroke-width="30" x1="1194.6" style="stroke-width: 30;"/>
    <line y1="747.487" x2="1194.6" y2="913.047" stroke="#D8D8D8" stroke-width="30" x1="1431.6" style="stroke-width: 30;"/>
    <path d="M 1397.72 899.147 L 1397.72 767.117" stroke="#D8D8D8" stroke-width="30" style="stroke-width: 30;"/>
    <path d="M 1226.7 896.097 L 1226.7 764.067" stroke="#D8D8D8" stroke-width="30" style="stroke-width: 30;"/>
    <line y1="584.797" x2="1194.41" y2="750.357" stroke="#D8D8D8" stroke-width="30" x1="957.414" style="stroke-width: 30;"/>
    <line y1="581.927" x2="957.414" y2="747.487" stroke="#D8D8D8" stroke-width="30" x1="1194.41" style="stroke-width: 30;"/>
    <path d="M 1160.53 779.297 L 1160.53 552.387" stroke="#D8D8D8" stroke-width="30" style="stroke-width: 30;"/>
    <line y1="915.887" x2="1194.41" y2="1081.44" stroke="#D8D8D8" stroke-width="30" x1="957.414" style="stroke-width: 30;"/>
    <line y1="913.017" x2="957.414" y2="1078.59" stroke="#D8D8D8" stroke-width="30" x1="1194.41" style="stroke-width: 30;"/>
    <path d="M 1160.53 1110.38 L 1160.53 883.477" stroke="#D8D8D8" stroke-width="30" style="stroke-width: 30;"/>
    <line y1="915.887" x2="1194.41" y2="1081.44" stroke="#D8D8D8" stroke-width="30" x1="957.414" style="stroke-width: 30;"/>
    <line y1="913.017" x2="957.414" y2="1078.59" stroke="#D8D8D8" stroke-width="30" x1="1194.41" style="stroke-width: 30;"/>
    <path d="M 1160.53 1110.38 L 1160.53 883.477" stroke="#D8D8D8" stroke-width="30" style="stroke-width: 30;"/>
    <path d="M 1465.92 779.297 L 1465.92 552.387" stroke="#D8D8D8" stroke-width="30" style="stroke-width: 30;"/>
    <path d="M 1465.92 779.297 L 1465.92 552.387" stroke="#D8D8D8" stroke-width="30" style="stroke-width: 30;"/>
    <path d="M 1465.93 1110.39 L 1465.92 883.487" stroke="#D8D8D8" stroke-width="30" style="stroke-width: 30; transform-box: fill-box; transform-origin: 50% 50%;" transform="matrix(1, 0.000001, -0.000001, 1, 0, 0)"/>
    <path d="M 1465.93 1110.39 L 1465.92 883.487" stroke="#D8D8D8" stroke-width="30" style="stroke-width: 30; transform-box: fill-box; transform-origin: 50% 50%;" transform="matrix(1, 0.000001, -0.000001, 1, 0, 0)"/>
    <line y1="584.797" x2="1668.79" y2="750.357" stroke="#D8D8D8" stroke-width="30" x1="1431.79" style="stroke-width: 30;"/>
    <line y1="581.927" x2="1431.79" y2="747.487" stroke="#D8D8D8" stroke-width="30" x1="1668.79" style="stroke-width: 30;"/>
    <path d="M 1634.91 779.297 L 1634.91 552.387" stroke="#D8D8D8" stroke-width="30" style="stroke-width: 30;"/>
    <path d="M 1701.08 896.107 L 1701.08 764.067" stroke="#D8D8D8" stroke-width="30" style="stroke-width: 30;"/>
    <line y1="750.347" x2="1905.98" y2="915.907" stroke="#D8D8D8" stroke-width="30" x1="1668.98" style="stroke-width: 30;"/>
    <line y1="747.487" x2="1668.98" y2="913.047" stroke="#D8D8D8" stroke-width="30" x1="1905.98" style="stroke-width: 30;"/>
    <path d="M 1872.1 899.157 L 1872.09 767.127" stroke="#D8D8D8" stroke-width="30" style="stroke-width: 30; transform-box: fill-box; transform-origin: 50% 50%;" transform="matrix(1, 0.000001, -0.000001, 1, 0, 0)"/>
    <path d="M 1701.08 896.107 L 1701.08 764.067" stroke="#D8D8D8" stroke-width="30" style="stroke-width: 30;"/>
    <line y1="584.797" x2="1668.79" y2="750.357" stroke="#D8D8D8" stroke-width="30" x1="1431.79" style="stroke-width: 30;"/>
    <line y1="581.927" x2="1431.79" y2="747.487" stroke="#D8D8D8" stroke-width="30" x1="1668.79" style="stroke-width: 30;"/>
    <path d="M 1634.91 779.297 L 1634.91 552.387" stroke="#D8D8D8" stroke-width="30" style="stroke-width: 30;"/>
    <line y1="915.887" x2="1668.79" y2="1081.44" stroke="#D8D8D8" stroke-width="30" x1="1431.79" style="stroke-width: 30;"/>
    <line y1="913.027" x2="1431.79" y2="1078.6" stroke="#D8D8D8" stroke-width="30" x1="1668.79" style="stroke-width: 30;"/>
    <path d="M 1634.91 1110.38 L 1634.91 883.477" stroke="#D8D8D8" stroke-width="30" style="stroke-width: 30;"/>
    <line y1="915.887" x2="1668.79" y2="1081.44" stroke="#D8D8D8" stroke-width="30" x1="1431.79" style="stroke-width: 30;"/>
    <line y1="913.027" x2="1431.79" y2="1078.6" stroke="#D8D8D8" stroke-width="30" x1="1668.79" style="stroke-width: 30;"/>
    <path d="M 1634.91 1110.38 L 1634.91 883.477" stroke="#D8D8D8" stroke-width="30" style="stroke-width: 30;"/>
    <path d="M 1940.31 779.297 L 1940.31 552.387" stroke="#D8D8D8" stroke-width="30" style="stroke-width: 30;"/>
    <path d="M 1940.31 779.297 L 1940.31 552.387" stroke="#D8D8D8" stroke-width="30" style="stroke-width: 30;"/>
    <path d="M 1940.31 1110.38 L 1940.32 883.492" stroke="#D8D8D8" stroke-width="30" style="stroke-width: 30; transform-box: fill-box; transform-origin: 50% 50%;" transform="matrix(1, 0.000001, -0.000001, 1, 0, 0)"/>
    <path d="M 1940.31 1110.38 L 1940.32 883.492" stroke="#D8D8D8" stroke-width="30" style="stroke-width: 30; transform-box: fill-box; transform-origin: 50% 50%;" transform="matrix(1, 0.000001, -0.000001, 1, 0, 0)"/>
    <line y1="584.797" x2="2143.17" y2="750.357" stroke="#D8D8D8" stroke-width="30" x1="1906.17" style="stroke-width: 30;"/>
    <line y1="581.927" x2="1906.17" y2="747.487" stroke="#D8D8D8" stroke-width="30" x1="2143.17" style="stroke-width: 30;"/>
    <path d="M 2109.3 779.297 L 2109.3 552.387" stroke="#D8D8D8" stroke-width="30" style="stroke-width: 30;"/>
    <path d="M 2175.47 896.111 L 2175.48 764.092" stroke="#D8D8D8" stroke-width="30" style="stroke-width: 30; transform-box: fill-box; transform-origin: 50% 50%;" transform="matrix(1, -0.000001, 0.000001, 1, 0, 0)"/>
    <line y1="750.347" x2="2380.36" y2="915.907" stroke="#D8D8D8" stroke-width="30" x1="2143.36" style="stroke-width: 30;"/>
    <line y1="747.487" x2="2143.36" y2="913.047" stroke="#D8D8D8" stroke-width="30" x1="2380.36" style="stroke-width: 30;"/>
    <path d="M 2346.49 899.147 L 2346.49 767.117" stroke="#D8D8D8" stroke-width="30" style="stroke-width: 30;"/>
    <path d="M 2175.47 896.111 L 2175.48 764.092" stroke="#D8D8D8" stroke-width="30" style="stroke-width: 30; transform-box: fill-box; transform-origin: 50% 50%;" transform="matrix(1, -0.000001, 0.000001, 1, 0, 0)"/>
    <line y1="584.797" x2="2143.17" y2="750.357" stroke="#D8D8D8" stroke-width="30" x1="1906.17" style="stroke-width: 30;"/>
    <line y1="581.927" x2="1906.17" y2="747.487" stroke="#D8D8D8" stroke-width="30" x1="2143.17" style="stroke-width: 30;"/>
    <path d="M 2109.3 779.297 L 2109.3 552.387" stroke="#D8D8D8" stroke-width="30" style="stroke-width: 30;"/>
    <line y1="915.887" x2="2143.17" y2="1081.44" stroke="#D8D8D8" stroke-width="30" x1="1906.17" style="stroke-width: 30;"/>
    <line y1="913.027" x2="1906.17" y2="1078.6" stroke="#D8D8D8" stroke-width="30" x1="2143.17" style="stroke-width: 30;"/>
    <path d="M 2109.3 1110.38 L 2109.3 883.477" stroke="#D8D8D8" stroke-width="30" style="stroke-width: 30;"/>
    <line y1="915.887" x2="2143.17" y2="1081.44" stroke="#D8D8D8" stroke-width="30" x1="1906.17" style="stroke-width: 30;"/>
    <line y1="913.027" x2="1906.17" y2="1078.6" stroke="#D8D8D8" stroke-width="30" x1="2143.17" style="stroke-width: 30;"/>
    <path d="M 2109.3 1110.38 L 2109.3 883.477" stroke="#D8D8D8" stroke-width="30" style="stroke-width: 30;"/>
    <path d="M 2414.69 779.297 L 2414.69 552.387" stroke="#D8D8D8" stroke-width="30" style="stroke-width: 30;"/>
    <path d="M 2414.69 779.297 L 2414.69 552.387" stroke="#D8D8D8" stroke-width="30" style="stroke-width: 30;"/>
    <path d="M 2414.68 1110.38 L 2414.69 883.467" stroke="#D8D8D8" stroke-width="30" style="stroke-width: 30; transform-box: fill-box; transform-origin: 50% 50%;" transform="matrix(1, 0.000001, -0.000001, 1, 0, 0)"/>
    <path d="M 2414.68 1110.38 L 2414.69 883.467" stroke="#D8D8D8" stroke-width="30" style="stroke-width: 30; transform-box: fill-box; transform-origin: 50% 50%;" transform="matrix(1, 0.000001, -0.000001, 1, 0, 0)"/>
    <line y1="584.797" x2="2617.56" y2="750.357" stroke="#D8D8D8" stroke-width="30" x1="2380.56" style="stroke-width: 30;"/>
    <line y1="581.927" x2="2380.56" y2="747.487" stroke="#D8D8D8" stroke-width="30" x1="2617.56" style="stroke-width: 30;"/>
    <path d="M 2583.68 779.297 L 2583.68 552.387" stroke="#D8D8D8" stroke-width="30" style="stroke-width: 30;"/>
    <path d="M 2649.85 896.099 L 2649.86 764.072" stroke="#D8D8D8" stroke-width="30" style="stroke-width: 30; transform-box: fill-box; transform-origin: 50% 50%;"/>
    <line y1="750.347" x2="2854.75" y2="915.907" stroke="#D8D8D8" stroke-width="30" x1="2617.75" style="stroke-width: 30;"/>
    <line y1="747.487" x2="2617.75" y2="913.047" stroke="#D8D8D8" stroke-width="30" x1="2854.75" style="stroke-width: 30;"/>
    <path d="M 2820.86 899.147 L 2820.85 767.117" stroke="#D8D8D8" stroke-width="30" style="stroke-width: 30; transform-box: fill-box; transform-origin: 50% 50%;" transform="matrix(1, 0.000001, -0.000001, 1, 0, 0)"/>
    <path d="M 2649.85 896.099 L 2649.86 764.072" stroke="#D8D8D8" stroke-width="30" style="stroke-width: 30; transform-box: fill-box; transform-origin: 50% 50%;"/>
    <line y1="584.797" x2="2617.56" y2="750.357" stroke="#D8D8D8" stroke-width="30" x1="2380.56" style="stroke-width: 30;"/>
    <line y1="581.927" x2="2380.56" y2="747.487" stroke="#D8D8D8" stroke-width="30" x1="2617.56" style="stroke-width: 30;"/>
    <path d="M 2583.68 779.297 L 2583.68 552.387" stroke="#D8D8D8" stroke-width="30" style="stroke-width: 30;"/>
    <line y1="915.887" x2="2617.56" y2="1081.44" stroke="#D8D8D8" stroke-width="30" x1="2380.56" style="stroke-width: 30;"/>
    <line y1="913.027" x2="2380.56" y2="1078.6" stroke="#D8D8D8" stroke-width="30" x1="2617.56" style="stroke-width: 30;"/>
    <path d="M 2583.68 1110.38 L 2583.68 883.477" stroke="#D8D8D8" stroke-width="30" style="stroke-width: 30;"/>
    <line y1="915.887" x2="2617.56" y2="1081.44" stroke="#D8D8D8" stroke-width="30" x1="2380.56" style="stroke-width: 30;"/>
    <line y1="913.027" x2="2380.56" y2="1078.6" stroke="#D8D8D8" stroke-width="30" x1="2617.56" style="stroke-width: 30;"/>
    <path d="M 2583.68 1110.38 L 2583.68 883.477" stroke="#D8D8D8" stroke-width="30" style="stroke-width: 30;"/>
    <path d="M 2889.07 779.297 L 2889.07 552.387" stroke="#D8D8D8" stroke-width="30" style="stroke-width: 30;"/>
    <path d="M 2889.07 779.297 L 2889.07 552.387" stroke="#D8D8D8" stroke-width="30" style="stroke-width: 30;"/>
    <path d="M 2889.04 1110.39 L 2889.03 883.487" stroke="#D8D8D8" stroke-width="30" style="stroke-width: 30; transform-box: fill-box; transform-origin: 50% 50%;" transform="matrix(1, 0.000001, -0.000001, 1, 0, 0)"/>
    <path d="M 2889.04 1110.39 L 2889.03 883.487" stroke="#D8D8D8" stroke-width="30" style="stroke-width: 30; transform-box: fill-box; transform-origin: 50% 50%;" transform="matrix(1, 0.000001, -0.000001, 1, 0, 0)"/>
    <line y1="584.797" x2="3091.94" y2="750.357" stroke="#D8D8D8" stroke-width="30" x1="2854.94" style="stroke-width: 30;"/>
    <line y1="581.927" x2="2854.94" y2="747.487" stroke="#D8D8D8" stroke-width="30" x1="3091.94" style="stroke-width: 30;"/>
    <path d="M 3058.06 779.297 L 3058.06 552.387" stroke="#D8D8D8" stroke-width="30" style="stroke-width: 30;"/>
    <path d="M 3124.23 896.097 L 3124.23 764.067" stroke="#D8D8D8" stroke-width="30" style="stroke-width: 30;"/>
    <line y1="750.347" x2="3329.13" y2="915.907" stroke="#D8D8D8" stroke-width="30" x1="3092.13" style="stroke-width: 30;"/>
    <line y1="747.487" x2="3092.13" y2="913.047" stroke="#D8D8D8" stroke-width="30" x1="3329.13" style="stroke-width: 30;"/>
    <path d="M 3295.29 899.157 L 3295.28 767.141" stroke="#D8D8D8" stroke-width="30" style="stroke-width: 30; transform-box: fill-box; transform-origin: 50% 50%;"/>
    <path d="M 3124.23 896.097 L 3124.23 764.067" stroke="#D8D8D8" stroke-width="30" style="stroke-width: 30;"/>
    <line y1="584.797" x2="3091.94" y2="750.357" stroke="#D8D8D8" stroke-width="30" x1="2854.94" style="stroke-width: 30;"/>
    <line y1="581.927" x2="2854.94" y2="747.487" stroke="#D8D8D8" stroke-width="30" x1="3091.94" style="stroke-width: 30;"/>
    <path d="M 3058.06 779.297 L 3058.06 552.387" stroke="#D8D8D8" stroke-width="30" style="stroke-width: 30;"/>
    <line y1="915.887" x2="3091.94" y2="1081.44" stroke="#D8D8D8" stroke-width="30" x1="2854.94" style="stroke-width: 30;"/>
    <line y1="913.017" x2="2854.94" y2="1078.59" stroke="#D8D8D8" stroke-width="30" x1="3091.94" style="stroke-width: 30;"/>
    <path d="M 3058.06 1110.38 L 3058.06 883.477" stroke="#D8D8D8" stroke-width="30" style="stroke-width: 30;"/>
    <line y1="915.887" x2="3091.94" y2="1081.44" stroke="#D8D8D8" stroke-width="30" x1="2854.94" style="stroke-width: 30;"/>
    <line y1="913.017" x2="2854.94" y2="1078.59" stroke="#D8D8D8" stroke-width="30" x1="3091.94" style="stroke-width: 30;"/>
    <path d="M 3058.06 1110.38 L 3058.06 883.477" stroke="#D8D8D8" stroke-width="30" style="stroke-width: 30;"/>
    <path d="M 3363.46 779.297 L 3363.46 552.387" stroke="#D8D8D8" stroke-width="30" style="stroke-width: 30;"/>
    <path d="M 3363.46 779.297 L 3363.46 552.387" stroke="#D8D8D8" stroke-width="30" style="stroke-width: 30;"/>
    <path d="M 3363.46 1110.38 L 3363.46 883.477" stroke="#D8D8D8" stroke-width="30" style="stroke-width: 30;"/>
    <path d="M 3363.46 1110.38 L 3363.46 883.477" stroke="#D8D8D8" stroke-width="30" style="stroke-width: 30;"/>
    <line y1="584.797" x2="3566.32" y2="750.357" stroke="#D8D8D8" stroke-width="30" x1="3329.32" style="stroke-width: 30;"/>
    <line y1="581.927" x2="3329.32" y2="747.487" stroke="#D8D8D8" stroke-width="30" x1="3566.32" style="stroke-width: 30;"/>
    <path d="M 3532.45 779.297 L 3532.45 552.387" stroke="#D8D8D8" stroke-width="30" style="stroke-width: 30;"/>
    <path d="M 3598.6 896.107 L 3598.61 764.067" stroke="#D8D8D8" stroke-width="30" style="stroke-width: 30; transform-box: fill-box; transform-origin: 50% 50%;"/>
    <line y1="750.347" x2="3803.52" y2="915.907" stroke="#D8D8D8" stroke-width="30" x1="3566.52" style="stroke-width: 30;"/>
    <line y1="747.487" x2="3566.52" y2="913.047" stroke="#D8D8D8" stroke-width="30" x1="3803.52" style="stroke-width: 30;"/>
    <path d="M 3769.64 899.147 L 3769.64 767.117" stroke="#D8D8D8" stroke-width="30" style="stroke-width: 30;"/>
    <path d="M 3598.6 896.107 L 3598.61 764.067" stroke="#D8D8D8" stroke-width="30" style="stroke-width: 30; transform-box: fill-box; transform-origin: 50% 50%;"/>
    <line y1="584.797" x2="3566.32" y2="750.357" stroke="#D8D8D8" stroke-width="30" x1="3329.32" style="stroke-width: 30;"/>
    <line y1="581.927" x2="3329.32" y2="747.487" stroke="#D8D8D8" stroke-width="30" x1="3566.32" style="stroke-width: 30;"/>
    <path d="M 3532.45 779.297 L 3532.45 552.387" stroke="#D8D8D8" stroke-width="30" style="stroke-width: 30;"/>
    <line y1="915.887" x2="3566.32" y2="1081.44" stroke="#D8D8D8" stroke-width="30" x1="3329.32" style="stroke-width: 30;"/>
    <line y1="913.017" x2="3329.32" y2="1078.59" stroke="#D8D8D8" stroke-width="30" x1="3566.32" style="stroke-width: 30;"/>
    <path d="M 3532.45 1110.38 L 3532.45 883.477" stroke="#D8D8D8" stroke-width="30" style="stroke-width: 30;"/>
    <line y1="915.887" x2="3566.32" y2="1081.44" stroke="#D8D8D8" stroke-width="30" x1="3329.32" style="stroke-width: 30;"/>
    <line y1="913.017" x2="3329.32" y2="1078.59" stroke="#D8D8D8" stroke-width="30" x1="3566.32" style="stroke-width: 30;"/>
    <path d="M 3532.45 1110.38 L 3532.45 883.477" stroke="#D8D8D8" stroke-width="30" style="stroke-width: 30;"/>
    <path d="M 3837.84 779.297 L 3837.84 552.387" stroke="#D8D8D8" stroke-width="30" style="stroke-width: 30;"/>
    <path d="M 3837.84 779.297 L 3837.84 552.387" stroke="#D8D8D8" stroke-width="30" style="stroke-width: 30;"/>
    <path d="M 3837.84 1110.38 L 3837.84 883.477" stroke="#D8D8D8" stroke-width="30" style="stroke-width: 30;"/>
    <path d="M 3837.84 1110.38 L 3837.84 883.477" stroke="#D8D8D8" stroke-width="30" style="stroke-width: 30;"/>
    <line y1="584.797" x2="4040.71" y2="750.357" stroke="#D8D8D8" stroke-width="30" x1="3803.71" style="stroke-width: 30;"/>
    <line y1="581.927" x2="3803.71" y2="747.487" stroke="#D8D8D8" stroke-width="30" x1="4040.71" style="stroke-width: 30;"/>
    <path d="M 4006.83 779.297 L 4006.83 552.387" stroke="#D8D8D8" stroke-width="30" style="stroke-width: 30;"/>
    <line y1="584.797" x2="4040.71" y2="750.357" stroke="#D8D8D8" stroke-width="30" x1="3803.71" style="stroke-width: 30;"/>
    <line y1="581.927" x2="3803.71" y2="747.487" stroke="#D8D8D8" stroke-width="30" x1="4040.71" style="stroke-width: 30;"/>
    <path d="M 4006.83 779.297 L 4006.83 552.387" stroke="#D8D8D8" stroke-width="30" style="stroke-width: 30;"/>
    <line y1="915.887" x2="4040.71" y2="1081.44" stroke="#D8D8D8" stroke-width="30" x1="3803.71" style="stroke-width: 30;"/>
    <line y1="913.017" x2="3803.71" y2="1078.59" stroke="#D8D8D8" stroke-width="30" x1="4040.71" style="stroke-width: 30;"/>
    <path d="M 4006.83 1110.38 L 4006.83 883.477" stroke="#D8D8D8" stroke-width="30" style="stroke-width: 30;"/>
    <line y1="915.887" x2="4040.71" y2="1081.44" stroke="#D8D8D8" stroke-width="30" x1="3803.71" style="stroke-width: 30;"/>
    <line y1="913.017" x2="3803.71" y2="1078.59" stroke="#D8D8D8" stroke-width="30" x1="4040.71" style="stroke-width: 30;"/>
</svg>