<?xml version="1.0" standalone="no"?>
<!DOCTYPE svg PUBLIC "-//W3C//DTD SVG 20010904//EN"
 "http://www.w3.org/TR/2001/REC-SVG-20010904/DTD/svg10.dtd">
<svg version="1.0" xmlns="http://www.w3.org/2000/svg"
 width="304.000000pt" height="240.000000pt" viewBox="0 0 304.000000 240.000000"
 preserveAspectRatio="xMidYMid meet">

<g transform="translate(0.000000,240.000000) scale(0.100000,-0.100000)"
fill="#000000" stroke="none">
<path d="M738 1836 c-56 -20 -85 -42 -116 -88 l-27 -42 -3 -510 c-2 -352 0
-523 8 -549 14 -49 65 -106 115 -128 37 -17 83 -19 681 -19 l640 0 51 25 c32
16 61 41 79 67 l29 41 3 529 c2 505 2 529 -17 565 -26 52 -68 89 -120 108 -37
13 -130 15 -665 15 -492 -1 -629 -4 -658 -14z m642 -661 l0 -515 -303 0 c-222
0 -306 3 -315 12 -9 9 -12 134 -12 499 0 430 2 489 16 503 13 14 56 16 315 16
l299 0 0 -515z m654 493 c23 -33 23 -953 0 -986 -15 -22 -19 -22 -255 -22
l-239 0 0 515 0 515 239 0 c236 0 240 0 255 -22z"/>
<path d="M1650 1440 l0 -80 145 0 145 0 0 80 0 80 -145 0 -145 0 0 -80z"/>
<path d="M1650 1170 l0 -81 143 3 142 3 3 78 3 77 -146 0 -145 0 0 -80z"/>
<path d="M1650 910 l0 -80 145 0 145 0 0 80 0 80 -145 0 -145 0 0 -80z"/>
</g>
</svg>
