<svg xmlns:xlink="http://www.w3.org/1999/xlink" viewBox="0 0 512 512" version="1.1" xmlns="http://www.w3.org/2000/svg">
  <defs>
    <style>
      .cls-1 {
        fill: #404040;
      }
    </style>
  </defs>
  
  <g>
    <g id="Layer_1">
      <g>
        <path d="M509.55,244.47c-2.39-65.39-29.94-127.33-76.91-172.88C385.67,26.04,322.92.39,257.49,0h-1.24c-44.06-.03-87.37,11.41-125.67,33.19-38.3,21.79-70.27,53.17-92.76,91.06C15.33,162.14,3.1,205.24,2.32,249.29c-.78,44.06,9.92,87.55,31.05,126.22l-22.44,134.28c-.04.27-.01.55.07.82.08.27.22.51.4.72s.41.38.66.49c.25.12.53.18.8.18h.39l132.81-29.54c34.32,16.47,71.89,25.02,109.96,25.01h7.26c33.48-.96,66.45-8.53,96.99-22.3,30.54-13.76,58.05-33.44,80.95-57.89,22.9-24.45,40.72-53.2,52.45-84.57,11.73-31.38,17.13-64.77,15.88-98.24h0ZM262.01,463.34h-6c-33.64.04-66.8-8.01-96.68-23.47l-6.79-3.55-90.07,21.28,16.62-91.12-3.86-6.54c-18.44-31.43-28.37-67.12-28.81-103.56-.45-36.44,8.61-72.36,26.27-104.24,17.66-31.88,43.32-58.6,74.45-77.54,31.13-18.94,66.66-29.45,103.09-30.48h6.1c55,.16,107.73,21.92,146.83,60.6,39.1,38.67,61.45,91.16,62.23,146.15.77,54.99-20.08,108.09-58.08,147.85-38,39.76-90.09,63-145.06,64.72l-.23-.08Z" class="cls-1"></path>
        <path d="M167.8,131.24c-3.14.06-6.23.75-9.09,2.03-2.86,1.28-5.44,3.12-7.58,5.41-6.05,6.2-22.95,21.13-23.93,52.47-.98,31.34,20.92,62.35,23.98,66.7,3.06,4.35,41.87,72.06,105.79,99.51,37.57,16.19,54.04,18.97,64.72,18.97,4.4,0,7.72-.46,11.19-.67,11.71-.72,38.14-14.26,43.9-28.98,5.77-14.72,6.15-27.59,4.63-30.16-1.52-2.57-5.69-4.43-11.97-7.72-6.28-3.29-37.08-19.76-42.87-22.08-2.15-1-4.46-1.6-6.82-1.77-1.54.08-3.03.53-4.36,1.32-1.32.79-2.43,1.89-3.24,3.2-5.15,6.41-16.96,20.33-20.92,24.35-.87,1-1.93,1.8-3.13,2.36-1.2.56-2.5.86-3.82.88-2.43-.11-4.81-.75-6.97-1.88-18.66-7.92-35.67-19.27-50.16-33.45-13.53-13.34-25.02-28.61-34.07-45.32-3.5-6.49,0-9.83,3.19-12.87,3.19-3.04,6.61-7.23,9.91-10.86,2.7-3.1,4.96-6.56,6.69-10.29.9-1.73,1.35-3.66,1.32-5.61-.03-1.95-.55-3.86-1.5-5.56-1.52-3.24-12.87-35.13-18.19-47.92-4.32-10.94-9.47-11.3-13.97-11.63-3.71-.26-7.95-.39-12.2-.51h-.54" class="cls-1"></path>
      </g>
    </g>
  </g>
</svg>